<svg width="164" height="58" viewBox="0 0 164 58" fill="none" xmlns="http://www.w3.org/2000/svg">
<g clip-path="url(#clip0_77_305)">
<path d="M18.8837 12.4131H13.4455V5.17711H10.75V15.1064H21.5792V5.17711H18.8837V12.4131Z" fill="#151515"/>
<path d="M10.75 27.7226H13.4455V20.4866H18.8837V27.7226H21.5792V17.7933H10.75V27.7226Z" fill="#151515"/>
<path d="M52.0962 8.40005L51.9821 8.51416V15.3045H45.0562L44.9399 15.4208V17.4919L45.0562 17.606H51.9821V24.3985L52.0962 24.5126H54.1673L54.2836 24.3985V16.8008V14.4993V8.51416L54.1673 8.40005H52.0962Z" fill="#151515"/>
<path d="M40.5262 8.40005L40.4121 8.51416V24.3985L40.5262 24.5126H42.5973L42.7136 24.3985V16.8008V14.4993V8.51416L42.5973 8.40005H40.5262Z" fill="#151515"/>
<path d="M69.3925 8.39574L63.556 14.2302L57.7194 8.39574L57.5579 8.39359L56.0918 9.85973V10.0212L62.4063 16.3357V24.3705L62.5204 24.4975H64.5937L64.7078 24.3705V16.3357L71.0201 10.0212V9.85973L69.5562 8.39574H69.3925Z" fill="#151515"/>
<path d="M75.9274 8.40004H72.8013L72.6743 8.51415V10.5853L72.8013 10.6994H75.8972C79.3505 10.6994 81.7661 13.2312 81.7661 16.4542C81.7661 19.6771 79.3484 22.2089 75.8972 22.2089H72.8013L72.6743 22.3231V24.3942L72.8013 24.5083H75.9274C80.8619 24.4932 84.4163 20.9323 84.4163 16.452C84.4163 11.9718 80.8619 8.41081 75.9295 8.39574L75.9274 8.40004Z" fill="#151515"/>
<path d="M138.379 8.40005L138.265 8.51416V10.5853L138.379 10.7015H148.168L148.284 10.5853V8.51416L148.168 8.40005H138.379Z" fill="#151515"/>
<path d="M96.9829 13.003C96.9829 10.3549 94.9117 8.39789 91.6888 8.39789H85.6929L85.5659 8.51199V10.5831L85.6929 10.6972H91.6888C93.4155 10.6972 94.3369 11.6187 94.3369 12.9987C94.3369 14.3787 93.4155 15.3002 91.6888 15.3002H89.9923L89.8653 15.4143V17.4854L89.9923 17.5995H91.4585L96.5221 24.3899L96.6362 24.504H99.3984L99.5125 24.3899L94.2185 17.1388C95.9451 16.4477 96.9807 14.8373 96.9807 12.9966L96.9829 13.003Z" fill="#151515"/>
<path d="M138.379 22.224L138.265 22.3403V24.4114L138.379 24.5255H148.168L148.284 24.4114V22.3403L148.168 22.224H138.379Z" fill="#151515"/>
<path d="M162.311 8.40005H160.238L160.124 8.51416V20.8289L150.686 8.51416L150.627 8.48402V12.3055L159.894 24.3985L160.124 24.5126H162.311L162.425 24.3985V8.51416L162.311 8.40005Z" fill="#151515"/>
<path d="M138.379 15.3045L138.265 15.4207V17.4919L138.379 17.606H148.168L148.284 17.4919V15.4207L148.168 15.3045H138.379Z" fill="#151515"/>
<path d="M100.18 16.4563C100.18 20.6976 103.392 24.2219 107.545 24.7795V22.3252C104.852 21.7827 102.826 19.3671 102.826 16.4563C102.826 13.5455 104.852 11.13 107.545 10.5874V8.13522C103.392 8.69283 100.18 12.215 100.18 16.4585V16.4563Z" fill="#151515"/>
<path d="M109.849 8.13307V10.5853C112.542 11.1278 114.568 13.5434 114.568 16.4542C114.568 19.3649 112.542 21.7805 109.849 22.323V24.7774C114.002 24.2198 117.214 20.6954 117.214 16.4542C117.214 12.2129 114.002 8.68853 109.849 8.13092V8.13307Z" fill="#151515"/>
<path d="M129.093 15.4208L128.979 15.5349V17.606L129.093 17.7201H132.2V21.6341C131.048 22.2089 129.782 22.4393 128.632 22.4393C125.065 22.4393 122.417 19.9075 122.417 16.4542C122.417 13.0009 124.949 10.469 128.516 10.469C130.473 10.469 132.661 10.9297 134.157 12.3098L134.273 12.1957V9.54756C132.777 8.39574 130.706 8.05127 128.518 8.05127C123.569 8.05127 119.771 11.849 119.771 16.4542C119.771 21.0593 123.685 24.8571 128.632 24.8571C130.704 24.8571 132.777 24.2822 134.501 23.0163V15.5349L134.387 15.4208H129.093Z" fill="#151515"/>
<path d="M0 32.6141H32.3282V0.285645H0V32.6141ZM2.66531 2.95097H29.6629V29.9487H2.66531V2.95097Z" fill="#151515"/>
</g>
<path d="M1.47 51.6141V41.8141H5.18C5.63733 41.8141 6.05733 41.8934 6.44 42.0521C6.82267 42.2107 7.154 42.4301 7.434 42.7101C7.714 42.9807 7.93333 43.3027 8.092 43.6761C8.25067 44.0494 8.33 44.4554 8.33 44.8941C8.33 45.3327 8.25067 45.7387 8.092 46.1121C7.93333 46.4854 7.714 46.8121 7.434 47.0921C7.154 47.3627 6.82267 47.5774 6.44 47.7361C6.05733 47.8947 5.63733 47.9741 5.18 47.9741H2.52V51.6141H1.47ZM2.52 42.7941V46.9941H5.18C5.81467 46.9941 6.32333 46.8027 6.706 46.4201C7.08867 46.0374 7.28 45.5287 7.28 44.8941C7.28 44.2594 7.08867 43.7507 6.706 43.3681C6.32333 42.9854 5.81467 42.7941 5.18 42.7941H2.52ZM14.7055 51.7541C14.0055 51.7541 13.3475 51.6234 12.7315 51.3621C12.1248 51.1007 11.5928 50.7414 11.1355 50.2841C10.6781 49.8267 10.3188 49.2947 10.0575 48.6881C9.79614 48.0721 9.66547 47.4141 9.66547 46.7141C9.66547 46.0141 9.79614 45.3607 10.0575 44.7541C10.3188 44.1381 10.6781 43.6014 11.1355 43.1441C11.5928 42.6867 12.1248 42.3274 12.7315 42.0661C13.3475 41.8047 14.0055 41.6741 14.7055 41.6741C15.4055 41.6741 16.0588 41.8047 16.6655 42.0661C17.2815 42.3274 17.8181 42.6867 18.2755 43.1441C18.7328 43.6014 19.0921 44.1381 19.3535 44.7541C19.6148 45.3607 19.7455 46.0141 19.7455 46.7141C19.7455 47.4141 19.6148 48.0721 19.3535 48.6881C19.0921 49.2947 18.7328 49.8267 18.2755 50.2841C17.8181 50.7414 17.2815 51.1007 16.6655 51.3621C16.0588 51.6234 15.4055 51.7541 14.7055 51.7541ZM14.7055 50.7741C15.2655 50.7741 15.7881 50.6714 16.2735 50.4661C16.7588 50.2607 17.1788 49.9761 17.5335 49.6121C17.8975 49.2481 18.1821 48.8187 18.3875 48.3241C18.5928 47.8294 18.6955 47.2927 18.6955 46.7141C18.6955 46.1354 18.5928 45.5987 18.3875 45.1041C18.1821 44.6094 17.8975 44.1801 17.5335 43.8161C17.1788 43.4521 16.7588 43.1674 16.2735 42.9621C15.7881 42.7567 15.2655 42.6541 14.7055 42.6541C14.1455 42.6541 13.6228 42.7567 13.1375 42.9621C12.6521 43.1674 12.2275 43.4521 11.8635 43.8161C11.5088 44.1801 11.2288 44.6094 11.0235 45.1041C10.8181 45.5987 10.7155 46.1354 10.7155 46.7141C10.7155 47.2927 10.8181 47.8294 11.0235 48.3241C11.2288 48.8187 11.5088 49.2481 11.8635 49.6121C12.2275 49.9761 12.6521 50.2607 13.1375 50.4661C13.6228 50.6714 14.1455 50.7741 14.7055 50.7741ZM21.5633 49.5701C21.7406 49.7941 21.9553 49.9947 22.2073 50.1721C22.4313 50.3214 22.7066 50.4614 23.0333 50.5921C23.3693 50.7134 23.7659 50.7741 24.2233 50.7741C24.9606 50.7741 25.5159 50.6061 25.8893 50.2701C26.2719 49.9247 26.4633 49.4861 26.4633 48.9541C26.4633 48.6367 26.3839 48.3801 26.2253 48.1841C26.0759 47.9787 25.8753 47.8061 25.6233 47.6661C25.3806 47.5261 25.1006 47.4094 24.7833 47.3161C24.4659 47.2134 24.1393 47.1107 23.8033 47.0081C23.4673 46.9054 23.1406 46.7934 22.8233 46.6721C22.5059 46.5414 22.2213 46.3781 21.9693 46.1821C21.7266 45.9767 21.5259 45.7294 21.3673 45.4401C21.2179 45.1414 21.1433 44.7727 21.1433 44.3341C21.1433 43.9794 21.2133 43.6434 21.3533 43.3261C21.5026 42.9994 21.7126 42.7147 21.9833 42.4721C22.2633 42.2294 22.5946 42.0381 22.9773 41.8981C23.3693 41.7487 23.8079 41.6741 24.2933 41.6741C24.7693 41.6741 25.1846 41.7394 25.5393 41.8701C25.8939 42.0007 26.1926 42.1454 26.4353 42.3041C26.7153 42.4907 26.9579 42.7007 27.1633 42.9341L26.4633 43.6341C26.3139 43.4474 26.1366 43.2841 25.9313 43.1441C25.7446 43.0134 25.5159 42.9014 25.2453 42.8081C24.9746 42.7054 24.6573 42.6541 24.2933 42.6541C23.9573 42.6541 23.6586 42.7007 23.3973 42.7941C23.1359 42.8874 22.9166 43.0134 22.7393 43.1721C22.5619 43.3214 22.4266 43.4987 22.3333 43.7041C22.2399 43.9001 22.1933 44.1101 22.1933 44.3341C22.1933 44.7541 22.3239 45.0807 22.5853 45.3141C22.8466 45.5381 23.1733 45.7247 23.5653 45.8741C23.9666 46.0234 24.3959 46.1587 24.8533 46.2801C25.3106 46.4014 25.7353 46.5647 26.1273 46.7701C26.5286 46.9661 26.8599 47.2367 27.1213 47.5821C27.3826 47.9181 27.5133 48.3754 27.5133 48.9541C27.5133 49.3554 27.4386 49.7287 27.2893 50.0741C27.1493 50.4101 26.9393 50.7041 26.6593 50.9561C26.3793 51.2081 26.0339 51.4041 25.6233 51.5441C25.2126 51.6841 24.7459 51.7541 24.2233 51.7541C23.6633 51.7541 23.1779 51.6794 22.7673 51.5301C22.3566 51.3714 22.0159 51.1987 21.7453 51.0121C21.4186 50.7974 21.1479 50.5547 20.9333 50.2841L21.5633 49.5701ZM32.0687 41.8141H35.9887C36.4274 41.8141 36.8287 41.8887 37.1927 42.0381C37.5661 42.1874 37.8834 42.3927 38.1447 42.6541C38.4154 42.9154 38.6254 43.2281 38.7747 43.5921C38.9241 43.9467 38.9987 44.3341 38.9987 44.7541C38.9987 45.3141 38.8914 45.7761 38.6767 46.1401C38.4714 46.4947 38.2427 46.7794 37.9907 46.9941C37.6921 47.2367 37.3514 47.4234 36.9687 47.5541L39.2787 51.6141H38.0887L35.9187 47.6941H33.1187V51.6141H32.0687V41.8141ZM33.1187 46.7141H35.9887C36.5861 46.7141 37.0621 46.5367 37.4167 46.1821C37.7714 45.8274 37.9487 45.3514 37.9487 44.7541C37.9487 44.1567 37.7714 43.6807 37.4167 43.3261C37.0621 42.9714 36.5861 42.7941 35.9887 42.7941H33.1187V46.7141ZM46.4193 50.3541C46.214 50.6154 45.976 50.8487 45.7053 51.0541C45.4626 51.2314 45.1686 51.3947 44.8233 51.5441C44.478 51.6841 44.0766 51.7541 43.6193 51.7541C43.162 51.7541 42.728 51.6654 42.3173 51.4881C41.916 51.3014 41.5613 51.0541 41.2533 50.7461C40.9453 50.4287 40.7026 50.0554 40.5253 49.6261C40.348 49.1967 40.2593 48.7394 40.2593 48.2541C40.2593 47.7594 40.348 47.3021 40.5253 46.8821C40.7026 46.4527 40.9406 46.0841 41.2393 45.7761C41.5473 45.4587 41.8973 45.2114 42.2893 45.0341C42.6906 44.8474 43.1106 44.7541 43.5493 44.7541C44.0066 44.7541 44.4313 44.8381 44.8233 45.0061C45.2153 45.1741 45.556 45.4074 45.8453 45.7061C46.1346 45.9954 46.3586 46.3454 46.5173 46.7561C46.6853 47.1667 46.7693 47.6194 46.7693 48.1141C46.7693 48.2541 46.7553 48.3754 46.7273 48.4781C46.7086 48.5714 46.6993 48.6134 46.6993 48.6041H41.2393C41.258 48.9027 41.3326 49.1874 41.4633 49.4581C41.594 49.7287 41.7666 49.9667 41.9813 50.1721C42.196 50.3774 42.4433 50.5407 42.7233 50.6621C43.0033 50.7834 43.302 50.8441 43.6193 50.8441C43.974 50.8441 44.282 50.7881 44.5433 50.6761C44.814 50.5547 45.0426 50.4241 45.2293 50.2841C45.444 50.1161 45.6306 49.9294 45.7893 49.7241L46.4193 50.3541ZM45.7893 47.7641C45.752 47.4654 45.668 47.1901 45.5373 46.9381C45.416 46.6767 45.2573 46.4527 45.0613 46.2661C44.8653 46.0794 44.6366 45.9347 44.3753 45.8321C44.1233 45.7201 43.848 45.6641 43.5493 45.6641C43.2506 45.6641 42.966 45.7201 42.6953 45.8321C42.434 45.9441 42.2006 46.0981 41.9953 46.2941C41.79 46.4901 41.622 46.7141 41.4913 46.9661C41.3606 47.2181 41.2766 47.4841 41.2393 47.7641H45.7893ZM53.9049 50.3541C53.6903 50.6154 53.4429 50.8487 53.1629 51.0541C52.9203 51.2314 52.6263 51.3947 52.2809 51.5441C51.9449 51.6841 51.5529 51.7541 51.1049 51.7541C50.6476 51.7541 50.2136 51.6654 49.8029 51.4881C49.4016 51.3014 49.0469 51.0541 48.7389 50.7461C48.4309 50.4287 48.1883 50.0554 48.0109 49.6261C47.8336 49.1967 47.7449 48.7394 47.7449 48.2541C47.7449 47.7594 47.8336 47.3021 48.0109 46.8821C48.1883 46.4527 48.4309 46.0841 48.7389 45.7761C49.0469 45.4587 49.4016 45.2114 49.8029 45.0341C50.2136 44.8474 50.6476 44.7541 51.1049 44.7541C51.5529 44.7541 51.9403 44.8241 52.2669 44.9641C52.6029 45.1041 52.8876 45.2534 53.1209 45.4121C53.4009 45.6081 53.6389 45.8321 53.8349 46.0841L53.1349 46.7841C52.9949 46.5787 52.8223 46.3921 52.6169 46.2241C52.4489 46.0841 52.2389 45.9581 51.9869 45.8461C51.7349 45.7247 51.4409 45.6641 51.1049 45.6641C50.7876 45.6641 50.4843 45.7294 50.1949 45.8601C49.9149 45.9907 49.6629 46.1727 49.4389 46.4061C49.2243 46.6394 49.0516 46.9147 48.9209 47.2321C48.7903 47.5494 48.7249 47.8901 48.7249 48.2541C48.7249 48.6181 48.7903 48.9587 48.9209 49.2761C49.0516 49.5934 49.2243 49.8687 49.4389 50.1021C49.6629 50.3354 49.9149 50.5174 50.1949 50.6481C50.4843 50.7787 50.7876 50.8441 51.1049 50.8441C51.4409 50.8441 51.7349 50.7881 51.9869 50.6761C52.2483 50.5547 52.4723 50.4241 52.6589 50.2841C52.8643 50.1161 53.0463 49.9294 53.2049 49.7241L53.9049 50.3541ZM60.6933 50.3541C60.4879 50.6154 60.2499 50.8487 59.9793 51.0541C59.7366 51.2314 59.4426 51.3947 59.0973 51.5441C58.7519 51.6841 58.3506 51.7541 57.8933 51.7541C57.4359 51.7541 57.0019 51.6654 56.5913 51.4881C56.1899 51.3014 55.8353 51.0541 55.5273 50.7461C55.2193 50.4287 54.9766 50.0554 54.7993 49.6261C54.6219 49.1967 54.5333 48.7394 54.5333 48.2541C54.5333 47.7594 54.6219 47.3021 54.7993 46.8821C54.9766 46.4527 55.2146 46.0841 55.5133 45.7761C55.8213 45.4587 56.1713 45.2114 56.5633 45.0341C56.9646 44.8474 57.3846 44.7541 57.8233 44.7541C58.2806 44.7541 58.7053 44.8381 59.0973 45.0061C59.4893 45.1741 59.8299 45.4074 60.1193 45.7061C60.4086 45.9954 60.6326 46.3454 60.7913 46.7561C60.9593 47.1667 61.0433 47.6194 61.0433 48.1141C61.0433 48.2541 61.0293 48.3754 61.0013 48.4781C60.9826 48.5714 60.9733 48.6134 60.9733 48.6041H55.5133C55.5319 48.9027 55.6066 49.1874 55.7373 49.4581C55.8679 49.7287 56.0406 49.9667 56.2553 50.1721C56.4699 50.3774 56.7173 50.5407 56.9973 50.6621C57.2773 50.7834 57.5759 50.8441 57.8933 50.8441C58.2479 50.8441 58.5559 50.7881 58.8173 50.6761C59.0879 50.5547 59.3166 50.4241 59.5033 50.2841C59.7179 50.1161 59.9046 49.9294 60.0633 49.7241L60.6933 50.3541ZM60.0633 47.7641C60.0259 47.4654 59.9419 47.1901 59.8113 46.9381C59.6899 46.6767 59.5313 46.4527 59.3353 46.2661C59.1393 46.0794 58.9106 45.9347 58.6493 45.8321C58.3973 45.7201 58.1219 45.6641 57.8233 45.6641C57.5246 45.6641 57.2399 45.7201 56.9693 45.8321C56.7079 45.9441 56.4746 46.0981 56.2693 46.2941C56.0639 46.4901 55.8959 46.7141 55.7653 46.9661C55.6346 47.2181 55.5506 47.4841 55.5133 47.7641H60.0633ZM62.3689 42.6541C62.3689 42.4767 62.4296 42.3274 62.5509 42.2061C62.6722 42.0847 62.8216 42.0241 62.9989 42.0241C63.1762 42.0241 63.3256 42.0847 63.4469 42.2061C63.5682 42.3274 63.6289 42.4767 63.6289 42.6541C63.6289 42.8314 63.5682 42.9807 63.4469 43.1021C63.3256 43.2234 63.1762 43.2841 62.9989 43.2841C62.8216 43.2841 62.6722 43.2234 62.5509 43.1021C62.4296 42.9807 62.3689 42.8314 62.3689 42.6541ZM62.5089 44.8941H63.4889V51.6141H62.5089V44.8941ZM65.4555 44.8941H66.4355V45.8461H66.4495C66.6081 45.6407 66.8041 45.4587 67.0375 45.3001C67.2241 45.1601 67.4575 45.0341 67.7375 44.9221C68.0268 44.8101 68.3628 44.7541 68.7455 44.7541C69.2028 44.7541 69.6275 44.8427 70.0195 45.0201C70.4208 45.1881 70.7708 45.4307 71.0695 45.7481C71.3681 46.0561 71.6015 46.4247 71.7695 46.8541C71.9468 47.2834 72.0355 47.7501 72.0355 48.2541C72.0355 48.7581 71.9468 49.2247 71.7695 49.6541C71.6015 50.0834 71.3681 50.4567 71.0695 50.7741C70.7708 51.0821 70.4208 51.3247 70.0195 51.5021C69.6275 51.6701 69.2028 51.7541 68.7455 51.7541C68.3628 51.7541 68.0268 51.6981 67.7375 51.5861C67.4575 51.4647 67.2241 51.3387 67.0375 51.2081C66.8041 51.0494 66.6081 50.8674 66.4495 50.6621H66.4355V54.5541H65.4555V44.8941ZM66.4355 48.2541C66.4355 48.6181 66.5008 48.9587 66.6315 49.2761C66.7621 49.5934 66.9348 49.8687 67.1495 50.1021C67.3641 50.3354 67.6068 50.5174 67.8775 50.6481C68.1575 50.7787 68.4468 50.8441 68.7455 50.8441C69.0628 50.8441 69.3615 50.7834 69.6415 50.6621C69.9215 50.5314 70.1641 50.3541 70.3695 50.1301C70.5841 49.8967 70.7521 49.6214 70.8735 49.3041C70.9948 48.9867 71.0555 48.6367 71.0555 48.2541C71.0555 47.8714 70.9948 47.5214 70.8735 47.2041C70.7521 46.8867 70.5841 46.6161 70.3695 46.3921C70.1641 46.1587 69.9215 45.9814 69.6415 45.8601C69.3615 45.7294 69.0628 45.6641 68.7455 45.6641C68.4468 45.6641 68.1575 45.7294 67.8775 45.8601C67.6068 45.9907 67.3641 46.1727 67.1495 46.4061C66.9348 46.6394 66.7621 46.9147 66.6315 47.2321C66.5008 47.5494 66.4355 47.8901 66.4355 48.2541ZM73.5716 44.8941C73.945 44.8941 74.1316 44.6607 74.1316 44.1941V42.6541H75.0416V44.8941H76.5116V45.8041H75.0416V49.7941C75.0416 50.1487 75.121 50.4147 75.2796 50.5921C75.4476 50.7601 75.6716 50.8441 75.9516 50.8441C76.0823 50.8441 76.199 50.8347 76.3016 50.8161C76.4136 50.7881 76.5116 50.7601 76.5956 50.7321C76.689 50.7041 76.7776 50.6714 76.8616 50.6341V51.5441C76.7776 51.5814 76.6843 51.6187 76.5816 51.6561C76.4976 51.6747 76.395 51.6934 76.2736 51.7121C76.1616 51.7401 76.0403 51.7541 75.9096 51.7541C75.331 51.7541 74.8783 51.5861 74.5516 51.2501C74.225 50.9141 74.0616 50.4287 74.0616 49.7941V45.8041H72.8016V44.8941H73.5716ZM86.526 46.5741H89.816V49.7241C89.5173 50.1067 89.1627 50.4427 88.752 50.7321C88.3973 50.9934 87.9633 51.2314 87.45 51.4461C86.946 51.6514 86.358 51.7541 85.686 51.7541C84.986 51.7541 84.328 51.6234 83.712 51.3621C83.1053 51.1007 82.5733 50.7414 82.116 50.2841C81.6587 49.8267 81.2993 49.2947 81.038 48.6881C80.7767 48.0721 80.646 47.4141 80.646 46.7141C80.646 46.0141 80.7767 45.3607 81.038 44.7541C81.2993 44.1381 81.6587 43.6014 82.116 43.1441C82.5733 42.6867 83.1053 42.3274 83.712 42.0661C84.328 41.8047 84.986 41.6741 85.686 41.6741C86.358 41.6741 86.9413 41.7814 87.436 41.9961C87.9307 42.2014 88.346 42.4301 88.682 42.6821C89.074 42.9807 89.4053 43.3214 89.676 43.7041L88.976 44.3341C88.7613 44.0167 88.4953 43.7367 88.178 43.4941C87.9073 43.2794 87.562 43.0881 87.142 42.9201C86.7313 42.7427 86.246 42.6541 85.686 42.6541C85.126 42.6541 84.6033 42.7567 84.118 42.9621C83.6327 43.1674 83.208 43.4521 82.844 43.8161C82.4893 44.1801 82.2093 44.6094 82.004 45.1041C81.7987 45.5987 81.696 46.1354 81.696 46.7141C81.696 47.2927 81.7987 47.8294 82.004 48.3241C82.2093 48.8187 82.4893 49.2481 82.844 49.6121C83.208 49.9761 83.6327 50.2607 84.118 50.4661C84.6033 50.6714 85.126 50.7741 85.686 50.7741C86.218 50.7741 86.6753 50.7041 87.058 50.5641C87.4407 50.4241 87.758 50.2701 88.01 50.1021C88.3087 49.9154 88.5607 49.6961 88.766 49.4441V47.5541H86.526V46.5741ZM97.4449 50.3541C97.2396 50.6154 97.0016 50.8487 96.7309 51.0541C96.4883 51.2314 96.1943 51.3947 95.8489 51.5441C95.5036 51.6841 95.1023 51.7541 94.6449 51.7541C94.1876 51.7541 93.7536 51.6654 93.3429 51.4881C92.9416 51.3014 92.5869 51.0541 92.2789 50.7461C91.9709 50.4287 91.7283 50.0554 91.5509 49.6261C91.3736 49.1967 91.2849 48.7394 91.2849 48.2541C91.2849 47.7594 91.3736 47.3021 91.5509 46.8821C91.7283 46.4527 91.9663 46.0841 92.2649 45.7761C92.5729 45.4587 92.9229 45.2114 93.3149 45.0341C93.7163 44.8474 94.1363 44.7541 94.5749 44.7541C95.0323 44.7541 95.4569 44.8381 95.8489 45.0061C96.2409 45.1741 96.5816 45.4074 96.8709 45.7061C97.1603 45.9954 97.3843 46.3454 97.5429 46.7561C97.7109 47.1667 97.7949 47.6194 97.7949 48.1141C97.7949 48.2541 97.7809 48.3754 97.7529 48.4781C97.7343 48.5714 97.7249 48.6134 97.7249 48.6041H92.2649C92.2836 48.9027 92.3583 49.1874 92.4889 49.4581C92.6196 49.7287 92.7923 49.9667 93.0069 50.1721C93.2216 50.3774 93.4689 50.5407 93.7489 50.6621C94.0289 50.7834 94.3276 50.8441 94.6449 50.8441C94.9996 50.8441 95.3076 50.7881 95.5689 50.6761C95.8396 50.5547 96.0683 50.4241 96.2549 50.2841C96.4696 50.1161 96.6563 49.9294 96.8149 49.7241L97.4449 50.3541ZM96.8149 47.7641C96.7776 47.4654 96.6936 47.1901 96.5629 46.9381C96.4416 46.6767 96.2829 46.4527 96.0869 46.2661C95.8909 46.0794 95.6623 45.9347 95.4009 45.8321C95.1489 45.7201 94.8736 45.6641 94.5749 45.6641C94.2763 45.6641 93.9916 45.7201 93.7209 45.8321C93.4596 45.9441 93.2263 46.0981 93.0209 46.2941C92.8156 46.4901 92.6476 46.7141 92.5169 46.9661C92.3863 47.2181 92.3023 47.4841 92.2649 47.7641H96.8149ZM100.241 44.8941V45.8461H100.255C100.404 45.6407 100.581 45.4587 100.787 45.3001C100.973 45.1601 101.202 45.0341 101.473 44.9221C101.743 44.8101 102.056 44.7541 102.411 44.7541C102.812 44.7541 103.181 44.8241 103.517 44.9641C103.853 45.0947 104.137 45.2861 104.371 45.5381C104.613 45.7807 104.8 46.0794 104.931 46.4341C105.071 46.7887 105.141 47.1854 105.141 47.6241V51.6141H104.161V47.6241C104.161 47.0267 103.988 46.5507 103.643 46.1961C103.307 45.8414 102.873 45.6641 102.341 45.6641C102.042 45.6641 101.762 45.7201 101.501 45.8321C101.249 45.9347 101.029 46.0841 100.843 46.2801C100.656 46.4761 100.507 46.7141 100.395 46.9941C100.292 47.2647 100.241 47.5681 100.241 47.9041V51.6141H99.2605V44.8941H100.241ZM112.772 50.3541C112.566 50.6154 112.328 50.8487 112.058 51.0541C111.815 51.2314 111.521 51.3947 111.176 51.5441C110.83 51.6841 110.429 51.7541 109.972 51.7541C109.514 51.7541 109.08 51.6654 108.67 51.4881C108.268 51.3014 107.914 51.0541 107.606 50.7461C107.298 50.4287 107.055 50.0554 106.878 49.6261C106.7 49.1967 106.612 48.7394 106.612 48.2541C106.612 47.7594 106.7 47.3021 106.878 46.8821C107.055 46.4527 107.293 46.0841 107.592 45.7761C107.9 45.4587 108.25 45.2114 108.642 45.0341C109.043 44.8474 109.463 44.7541 109.902 44.7541C110.359 44.7541 110.784 44.8381 111.176 45.0061C111.568 45.1741 111.908 45.4074 112.198 45.7061C112.487 45.9954 112.711 46.3454 112.87 46.7561C113.038 47.1667 113.122 47.6194 113.122 48.1141C113.122 48.2541 113.108 48.3754 113.08 48.4781C113.061 48.5714 113.052 48.6134 113.052 48.6041H107.592C107.61 48.9027 107.685 49.1874 107.816 49.4581C107.946 49.7287 108.119 49.9667 108.334 50.1721C108.548 50.3774 108.796 50.5407 109.076 50.6621C109.356 50.7834 109.654 50.8441 109.972 50.8441C110.326 50.8441 110.634 50.7881 110.896 50.6761C111.166 50.5547 111.395 50.4241 111.582 50.2841C111.796 50.1161 111.983 49.9294 112.142 49.7241L112.772 50.3541ZM112.142 47.7641C112.104 47.4654 112.02 47.1901 111.89 46.9381C111.768 46.6767 111.61 46.4527 111.414 46.2661C111.218 46.0794 110.989 45.9347 110.728 45.8321C110.476 45.7201 110.2 45.6641 109.902 45.6641C109.603 45.6641 109.318 45.7201 109.048 45.8321C108.786 45.9441 108.553 46.0981 108.348 46.2941C108.142 46.4901 107.974 46.7141 107.844 46.9661C107.713 47.2181 107.629 47.4841 107.592 47.7641H112.142ZM114.587 44.8941H115.567V45.7761H115.595C115.735 45.5894 115.913 45.4167 116.127 45.2581C116.314 45.1274 116.543 45.0107 116.813 44.9081C117.093 44.8054 117.425 44.7541 117.807 44.7541H118.087V45.7341H117.667C117.387 45.7341 117.121 45.7854 116.869 45.8881C116.617 45.9907 116.393 46.1354 116.197 46.3221C116.001 46.5087 115.847 46.7374 115.735 47.0081C115.623 47.2694 115.567 47.5681 115.567 47.9041V51.6141H114.587V44.8941ZM121.023 51.7541C120.678 51.7541 120.356 51.6981 120.057 51.5861C119.768 51.4741 119.516 51.3294 119.301 51.1521C119.096 50.9654 118.933 50.7554 118.811 50.5221C118.699 50.2794 118.643 50.0367 118.643 49.7941C118.643 49.2341 118.811 48.7814 119.147 48.4361C119.483 48.0907 119.969 47.8667 120.603 47.7641L123.193 47.3441V47.3161C123.193 47.0734 123.151 46.8541 123.067 46.6581C122.983 46.4527 122.867 46.2801 122.717 46.1401C122.568 45.9907 122.391 45.8741 122.185 45.7901C121.98 45.7061 121.756 45.6641 121.513 45.6641C121.215 45.6641 120.949 45.7154 120.715 45.8181C120.482 45.9114 120.286 46.0234 120.127 46.1541C119.931 46.2941 119.763 46.4574 119.623 46.6441L118.993 46.0141C119.18 45.7807 119.399 45.5707 119.651 45.3841C119.866 45.2254 120.127 45.0807 120.435 44.9501C120.753 44.8194 121.112 44.7541 121.513 44.7541C121.896 44.7541 122.251 44.8194 122.577 44.9501C122.904 45.0807 123.184 45.2627 123.417 45.4961C123.66 45.7294 123.847 46.0047 123.977 46.3221C124.108 46.6394 124.173 46.9801 124.173 47.3441V51.6141H123.193V50.7321H123.179C123.03 50.9187 122.853 51.0867 122.647 51.2361C122.461 51.3667 122.232 51.4881 121.961 51.6001C121.7 51.7027 121.387 51.7541 121.023 51.7541ZM120.883 48.6041C120.043 48.7534 119.623 49.1501 119.623 49.7941C119.623 50.0741 119.74 50.3214 119.973 50.5361C120.216 50.7414 120.566 50.8441 121.023 50.8441C121.341 50.8441 121.63 50.7927 121.891 50.6901C122.162 50.5781 122.391 50.4241 122.577 50.2281C122.773 50.0321 122.923 49.7987 123.025 49.5281C123.137 49.2481 123.193 48.9401 123.193 48.6041V48.1841L120.883 48.6041ZM126.06 44.8941C126.433 44.8941 126.62 44.6607 126.62 44.1941V42.6541H127.53V44.8941H129V45.8041H127.53V49.7941C127.53 50.1487 127.609 50.4147 127.768 50.5921C127.936 50.7601 128.16 50.8441 128.44 50.8441C128.571 50.8441 128.687 50.8347 128.79 50.8161C128.902 50.7881 129 50.7601 129.084 50.7321C129.177 50.7041 129.266 50.6714 129.35 50.6341V51.5441C129.266 51.5814 129.173 51.6187 129.07 51.6561C128.986 51.6747 128.883 51.6934 128.762 51.7121C128.65 51.7401 128.529 51.7541 128.398 51.7541C127.819 51.7541 127.367 51.5861 127.04 51.2501C126.713 50.9141 126.55 50.4287 126.55 49.7941V45.8041H125.29V44.8941H126.06ZM133.558 51.7541C133.082 51.7541 132.634 51.6654 132.214 51.4881C131.804 51.3014 131.444 51.0541 131.136 50.7461C130.828 50.4287 130.581 50.0554 130.394 49.6261C130.217 49.1967 130.128 48.7394 130.128 48.2541C130.128 47.7594 130.217 47.3021 130.394 46.8821C130.581 46.4527 130.828 46.0841 131.136 45.7761C131.444 45.4587 131.804 45.2114 132.214 45.0341C132.634 44.8474 133.082 44.7541 133.558 44.7541C134.034 44.7541 134.478 44.8474 134.888 45.0341C135.308 45.2114 135.672 45.4587 135.98 45.7761C136.288 46.0841 136.531 46.4527 136.708 46.8821C136.895 47.3021 136.988 47.7594 136.988 48.2541C136.988 48.7394 136.895 49.1967 136.708 49.6261C136.531 50.0554 136.288 50.4287 135.98 50.7461C135.672 51.0541 135.308 51.3014 134.888 51.4881C134.478 51.6654 134.034 51.7541 133.558 51.7541ZM133.558 50.8441C133.894 50.8441 134.207 50.7787 134.496 50.6481C134.795 50.5174 135.056 50.3354 135.28 50.1021C135.504 49.8687 135.682 49.5934 135.812 49.2761C135.943 48.9587 136.008 48.6181 136.008 48.2541C136.008 47.8901 135.943 47.5494 135.812 47.2321C135.682 46.9147 135.504 46.6394 135.28 46.4061C135.056 46.1727 134.795 45.9907 134.496 45.8601C134.207 45.7294 133.894 45.6641 133.558 45.6641C133.222 45.6641 132.905 45.7294 132.606 45.8601C132.317 45.9907 132.06 46.1727 131.836 46.4061C131.612 46.6394 131.435 46.9147 131.304 47.2321C131.174 47.5494 131.108 47.8901 131.108 48.2541C131.108 48.6181 131.174 48.9587 131.304 49.2761C131.435 49.5934 131.612 49.8687 131.836 50.1021C132.06 50.3261 132.317 50.5081 132.606 50.6481C132.905 50.7787 133.222 50.8441 133.558 50.8441ZM138.459 44.8941H139.439V45.7761H139.467C139.607 45.5894 139.785 45.4167 139.999 45.2581C140.186 45.1274 140.415 45.0107 140.685 44.9081C140.965 44.8054 141.297 44.7541 141.679 44.7541H141.959V45.7341H141.539C141.259 45.7341 140.993 45.7854 140.741 45.8881C140.489 45.9907 140.265 46.1354 140.069 46.3221C139.873 46.5087 139.719 46.7374 139.607 47.0081C139.495 47.2694 139.439 47.5681 139.439 47.9041V51.6141H138.459V44.8941Z" fill="#151515"/>
<defs>
<clipPath id="clip0_77_305">
<rect width="163.344" height="32.3284" fill="white" transform="translate(0 0.285645)"/>
</clipPath>
</defs>
</svg>
