<svg width="163" height="33" viewBox="0 0 163 33" fill="none" xmlns="http://www.w3.org/2000/svg">
<path d="M18.9501 12.1704H13.4926V4.90878H10.7876V14.8732H21.6551V4.90878H18.9501V12.1704Z" fill="white"/>
<path d="M10.7876 27.5341H13.4926V20.2725H18.9501V27.5341H21.6551V17.5696H10.7876V27.5341Z" fill="white"/>
<path d="M52.2809 8.14313L52.1664 8.25764V15.072H45.2159L45.0993 15.1887V17.2671L45.2159 17.3817H52.1664V24.1982L52.2809 24.3127H54.3593L54.476 24.1982V16.5736V14.264V8.25764L54.3593 8.14313H52.2809Z" fill="white"/>
<path d="M40.6697 8.14313L40.5552 8.25764V24.1982L40.6697 24.3127H42.7481L42.8648 24.1982V16.5736V14.264V8.25764L42.7481 8.14313H40.6697Z" fill="white"/>
<path d="M69.6384 8.1388L63.7812 13.9939L57.924 8.1388L57.7619 8.13664L56.2906 9.60798V9.77002L62.6275 16.1069V24.1701L62.742 24.2976H64.8226L64.9371 24.1701V16.1069L71.2718 9.77002V9.60798L69.8026 8.1388H69.6384Z" fill="white"/>
<path d="M76.1957 8.14312H73.0585L72.9311 8.25763V10.3361L73.0585 10.4506H76.1654C79.6309 10.4506 82.055 12.9914 82.055 16.2257C82.055 19.4601 79.6288 22.0009 76.1654 22.0009H73.0585L72.9311 22.1154V24.1939L73.0585 24.3084H76.1957C81.1476 24.2932 84.7147 20.7197 84.7147 16.2236C84.7147 11.7275 81.1476 8.15392 76.1978 8.1388L76.1957 8.14312Z" fill="white"/>
<path d="M138.869 8.14313L138.754 8.25764V10.3361L138.869 10.4528H148.693L148.809 10.3361V8.25764L148.693 8.14313H138.869Z" fill="white"/>
<path d="M97.3262 12.7624C97.3262 10.1049 95.2477 8.14096 92.0134 8.14096H85.9963L85.8688 8.25547V10.3339L85.9963 10.4484H92.0134C93.7461 10.4484 94.6708 11.3731 94.6708 12.7581C94.6708 14.143 93.7461 15.0677 92.0134 15.0677H90.3109L90.1834 15.1822V17.2606L90.3109 17.3752H91.7822L96.8638 24.1895L96.9783 24.3041H99.7503L99.8648 24.1895L94.552 16.9128C96.2848 16.2193 97.324 14.6032 97.324 12.7559L97.3262 12.7624Z" fill="white"/>
<path d="M138.869 22.016L138.754 22.1327V24.2112L138.869 24.3257H148.693L148.809 24.2112V22.1327L148.693 22.016H138.869Z" fill="white"/>
<path d="M162.885 8.14313H160.805L160.69 8.25764V20.616L151.218 8.25764L151.16 8.2274V12.0624L160.459 24.1982L160.69 24.3127H162.885L163 24.1982V8.25764L162.885 8.14313Z" fill="white"/>
<path d="M138.869 15.072L138.754 15.1887V17.2671L138.869 17.3816H148.693L148.809 17.2671V15.1887L148.693 15.072H138.869Z" fill="white"/>
<path d="M100.534 16.2279C100.534 20.4842 103.758 24.021 107.926 24.5806V22.1176C105.223 21.5731 103.19 19.149 103.19 16.2279C103.19 13.3068 105.223 10.8827 107.926 10.3382V7.87736C103.758 8.43695 100.534 11.9716 100.534 16.2301V16.2279Z" fill="white"/>
<path d="M110.237 7.87521V10.3361C112.94 10.8805 114.973 13.3047 114.973 16.2257C114.973 19.1468 112.94 21.5709 110.237 22.1154V24.5784C114.405 24.0189 117.628 20.482 117.628 16.2257C117.628 11.9695 114.405 8.43263 110.237 7.87305V7.87521Z" fill="white"/>
<path d="M129.55 15.1887L129.436 15.3032V17.3816L129.55 17.4962H132.668V21.424C131.512 22.0009 130.241 22.2321 129.088 22.2321C125.508 22.2321 122.85 19.6913 122.85 16.2257C122.85 12.7602 125.391 10.2194 128.971 10.2194C130.935 10.2194 133.13 10.6818 134.632 12.0667L134.748 11.9522V9.2947C133.247 8.1388 131.168 7.79311 128.973 7.79311C124.006 7.79311 120.195 11.6043 120.195 16.2257C120.195 20.8472 124.123 24.6584 129.088 24.6584C131.166 24.6584 133.247 24.0815 134.977 22.8111V15.3032L134.863 15.1887H129.55Z" fill="white"/>
<path d="M0 32.4429H32.4427V0H0V32.4429ZM2.67475 2.67476H29.7679V29.7681H2.67475V2.67476Z" fill="white"/>
</svg>
