<svg width="72" height="45" viewBox="0 0 72 45" fill="none" xmlns="http://www.w3.org/2000/svg">
<g clip-path="url(#clip0_5544_33204)">
<path d="M33.3993 37.9605C33.3993 36.4089 32.1852 35.2616 30.2949 35.2616H26.7797L26.7064 35.3297V36.5437L26.7797 36.6117H30.2949C31.3074 36.6117 31.8464 37.152 31.8464 37.9618C31.8464 38.7716 31.3061 39.3106 30.2949 39.3106H29.3006L29.2274 39.3786V40.5926L29.3006 40.6606H30.1601L33.1285 44.6415L33.1965 44.7096H34.8161L34.8841 44.6415L31.7797 40.3912C32.7923 39.9869 33.3993 39.0424 33.3993 37.9618V37.9605Z" fill="black"/>
<path d="M21.0563 35.2616H19.2234L19.1489 35.3284V36.5424L19.2234 36.6104H21.0392C23.0631 36.6104 24.4812 38.0952 24.4812 39.9843C24.4812 41.8734 23.0644 43.3582 21.0392 43.3582H19.2234L19.1489 43.4262V44.6402L19.2234 44.7083H21.0563C23.9487 44.6991 26.0327 42.6112 26.0327 39.9856C26.0327 37.36 23.95 35.2708 21.0576 35.2629L21.0563 35.2616Z" fill="black"/>
<path d="M17.2258 35.259L13.8035 38.68L10.3825 35.259H10.287L9.42753 36.1172V36.2127L13.1298 39.9137V44.6245L13.1965 44.6991H14.4118L14.4785 44.6245V39.9137L18.1795 36.2127V36.1172L17.3213 35.259H17.2258Z" fill="black"/>
<path d="M7.08451 35.2616L7.01779 35.3284V39.3093H2.95709L2.88906 39.3773V40.5913L2.95709 40.6593H7.01779V44.6402L7.08451 44.7083H8.29984L8.36656 44.6402V40.1871V38.837V35.3284L8.29984 35.2616H7.08451Z" fill="black"/>
<path d="M0.301414 35.2616L0.234695 35.3284V44.6402L0.301414 44.7083H1.51675L1.58347 44.6402V40.1871V38.837V35.3284L1.51675 35.2616H0.301414Z" fill="black"/>
<path d="M71.6986 35.2616H70.4832L70.4165 35.3284V42.5484L64.8828 35.3284L64.8488 35.3114V37.551L70.2805 44.6402L70.4165 44.7083H71.6986L71.7653 44.6402V35.3284L71.6986 35.2616Z" fill="black"/>
<path d="M57.668 39.3093L57.6013 39.3773V40.5913L57.668 40.6593H63.4071L63.4751 40.5913V39.3773L63.4071 39.3093H57.668Z" fill="black"/>
<path d="M35.2739 39.9843C35.2739 42.4712 37.1578 44.5369 39.5924 44.8639V43.4262C38.0133 43.107 36.8255 41.6928 36.8255 39.9856C36.8255 38.2784 38.0133 36.8629 39.5924 36.545V35.1073C37.1578 35.4343 35.2739 37.5 35.2739 39.9869V39.9843Z" fill="black"/>
<path d="M57.668 35.2616L57.6013 35.3284V36.5437L57.668 36.6104H63.4071L63.4751 36.5437V35.3284L63.4071 35.2616H57.668Z" fill="black"/>
<path d="M57.668 43.366L57.6013 43.4341V44.6481L57.668 44.7161H63.4071L63.4751 44.6481V43.4341L63.4071 43.366H57.668Z" fill="black"/>
<path d="M52.2245 39.3773L52.1565 39.4453V40.6593L52.2245 40.7274H54.0468V43.022C53.3718 43.3595 52.63 43.4942 51.955 43.4942C49.8632 43.4942 48.3116 42.0094 48.3116 39.9856C48.3116 37.9618 49.7964 36.477 51.8883 36.477C53.0356 36.477 54.3176 36.7465 55.1941 37.5563L55.2622 37.4882V35.9367C54.3843 35.2616 53.1703 35.0589 51.8883 35.0589C48.9867 35.0589 46.7601 37.2855 46.7601 39.9843C46.7601 42.6831 49.0547 44.9097 51.955 44.9097C53.169 44.9097 54.3844 44.5722 55.3956 43.8305V39.444L55.3276 39.376H52.2232L52.2245 39.3773Z" fill="black"/>
<path d="M40.9411 35.1047V36.5424C42.5201 36.8616 43.708 38.2758 43.708 39.983C43.708 41.6902 42.5201 43.1057 40.9411 43.4236V44.8613C43.3757 44.5343 45.2595 42.4686 45.2595 39.9817C45.2595 37.4948 43.3757 35.4291 40.9411 35.102V35.1047Z" fill="black"/>
<path d="M40.6913 4.23993H38.3561V10.5076H33.6439V4.23993H31.3087V12.8414H40.6913V4.23993Z" fill="black"/>
<path d="M50.0044 -1.90735e-06H21.9956V28.0089H50.0044V-1.90735e-06ZM47.6954 25.6999H24.3046V2.31031H47.6954V25.7012V25.6999Z" fill="black"/>
<path d="M33.6439 17.5026H38.3561V23.7703H40.6913V15.1701H31.3087V23.7703H33.6439V17.5026Z" fill="black"/>
</g>
<defs>
<clipPath id="clip0_5544_33204">
<rect width="72" height="45" fill="white"/>
</clipPath>
</defs>
</svg>
